<?xml version="1.0" standalone="no"?>
<!DOCTYPE svg PUBLIC "-//W3C//DTD SVG 20010904//EN"
 "http://www.w3.org/TR/2001/REC-SVG-20010904/DTD/svg10.dtd">
<svg version="1.0" xmlns="http://www.w3.org/2000/svg"
 width="111.000000pt" height="111.000000pt" viewBox="0 0 111.000000 111.000000"
 preserveAspectRatio="xMidYMid meet">

<g transform="translate(0.000000,111.000000) scale(0.100000,-0.100000)"
fill="#000000" stroke="none">
<path d="M399 1061 c-90 -29 -156 -71 -223 -142 -100 -106 -146 -219 -146
-361 0 -286 233 -517 520 -518 293 0 524 231 522 525 0 90 -33 205 -79 278
-62 99 -181 185 -302 221 -74 22 -219 20 -292 -3z m272 -16 c269 -68 433 -344
364 -610 -47 -177 -195 -321 -374 -361 -92 -21 -139 -21 -222 0 -170 43 -302
161 -361 324 -30 82 -30 243 1 326 59 165 187 279 358 321 93 23 147 23 234 0z"/>
<path d="M493 960 c-126 -18 -250 -111 -307 -230 -29 -60 -31 -73 -31 -170 0
-99 2 -110 32 -171 40 -80 120 -159 200 -197 52 -24 70 -27 163 -27 97 0 110
2 173 32 243 115 307 423 131 632 -80 95 -229 149 -361 131z m18 -247 c8 -8 6
-18 -5 -35 -15 -22 -22 -25 -66 -20 -45 4 -52 2 -80 -26 -26 -26 -29 -35 -21
-51 16 -29 61 -31 94 -4 16 13 37 23 48 23 10 0 19 7 19 15 0 22 61 86 97 101
51 22 112 17 162 -11 31 -18 48 -22 55 -15 7 7 4 10 -8 10 -10 0 -16 6 -13 13
2 6 12 12 23 12 15 0 19 -8 21 -42 1 -24 -3 -43 -8 -43 -6 0 -6 -7 1 -19 5
-11 10 -38 10 -61 0 -33 4 -42 23 -49 12 -5 30 -5 39 0 15 8 17 5 12 -23 -36
-199 -241 -331 -446 -289 -111 23 -224 123 -264 232 -17 48 -24 168 -11 213 8
27 10 28 50 23 33 -5 46 -2 62 13 41 38 78 51 138 47 31 -2 62 -8 68 -14z"/>
<path d="M602 635 c-38 -32 -45 -59 -20 -81 27 -25 60 -22 97 9 18 15 43 27
57 27 32 0 30 13 -7 44 -40 34 -88 34 -127 1z"/>
<path d="M914 814 c-18 -14 -18 -15 4 -4 12 6 22 13 22 15 0 8 -5 6 -26 -11z"/>
<path d="M150 806 c0 -3 9 -10 20 -16 11 -6 20 -8 20 -6 0 3 -9 10 -20 16 -11
6 -20 8 -20 6z"/>
<path d="M130 786 c0 -3 9 -10 20 -16 11 -6 20 -8 20 -6 0 3 -9 10 -20 16 -11
6 -20 8 -20 6z"/>
<path d="M944 764 c-18 -14 -18 -14 6 -3 31 14 36 19 24 19 -6 0 -19 -7 -30
-16z"/>
<path d="M120 754 c0 -2 9 -8 20 -14 11 -6 20 -7 20 -2 0 6 -9 12 -20 15 -11
3 -20 3 -20 1z"/>
<path d="M960 745 c-15 -8 -19 -14 -10 -14 18 -1 46 16 40 23 -3 2 -16 -2 -30
-9z"/>
<path d="M110 720 c8 -5 22 -10 30 -10 13 0 13 1 0 10 -8 5 -22 10 -30 10 -13
0 -13 -1 0 -10z"/>
<path d="M971 719 c-13 -5 -22 -11 -20 -14 8 -7 49 7 49 16 0 5 -1 9 -2 8 -2
0 -14 -5 -27 -10z"/>
<path d="M100 690 c20 -13 43 -13 35 0 -3 6 -16 10 -28 10 -18 0 -19 -2 -7
-10z"/>
<path d="M970 690 c-8 -5 -12 -11 -9 -14 7 -8 49 5 49 15 0 12 -21 11 -40 -1z"/>
<path d="M90 670 c0 -8 25 -20 41 -20 20 0 7 18 -16 22 -14 3 -25 2 -25 -2z"/>
<path d="M975 660 c-4 -6 5 -10 19 -10 14 0 26 5 26 10 0 6 -9 10 -19 10 -11
0 -23 -4 -26 -10z"/>
<path d="M80 641 c0 -5 11 -11 25 -13 28 -6 34 6 9 16 -22 8 -34 7 -34 -3z"/>
<path d="M970 630 c0 -5 9 -10 19 -10 11 0 23 5 26 10 4 6 -5 10 -19 10 -14 0
-26 -4 -26 -10z"/>
<path d="M80 610 c0 -5 12 -10 28 -9 24 0 25 1 7 9 -27 12 -35 12 -35 0z"/>
<path d="M980 600 c0 -5 9 -10 19 -10 11 0 23 5 26 10 4 6 -5 10 -19 10 -14 0
-26 -4 -26 -10z"/>
<path d="M70 580 c0 -5 14 -10 30 -10 17 0 30 5 30 10 0 6 -13 10 -30 10 -16
0 -30 -4 -30 -10z"/>
<path d="M980 570 c0 -5 11 -10 25 -10 14 0 25 5 25 10 0 6 -11 10 -25 10 -14
0 -25 -4 -25 -10z"/>
<path d="M70 550 c0 -5 14 -10 31 -10 17 0 28 4 24 10 -3 6 -17 10 -31 10 -13
0 -24 -4 -24 -10z"/>
<path d="M979 538 c-10 -159 -113 -303 -264 -368 -27 -12 -69 -23 -91 -24 -23
0 -40 -4 -38 -7 4 -8 -69 -4 -121 6 -164 31 -330 208 -334 358 -1 23 -5 27
-31 27 -35 0 -41 -19 -7 -21 16 -1 18 -2 5 -6 -17 -4 -27 -53 -10 -53 4 0 8
-11 8 -25 5 -80 132 -238 230 -288 196 -99 423 -61 571 95 73 78 120 178 128
273 4 42 3 45 -20 45 -14 0 -25 -6 -26 -12z"/>
</g>
</svg>
