<?xml version="1.0" standalone="no"?>
<!DOCTYPE svg PUBLIC "-//W3C//DTD SVG 20010904//EN"
 "http://www.w3.org/TR/2001/REC-SVG-20010904/DTD/svg10.dtd">
<svg version="1.0" xmlns="http://www.w3.org/2000/svg"
 width="111.000000pt" height="111.000000pt" viewBox="0 0 111.000000 111.000000"
 preserveAspectRatio="xMidYMid meet">

<g transform="translate(0.000000,111.000000) scale(0.100000,-0.100000)"
fill="#000000" stroke="none">
<path d="M481 1083 c-32 -3 -44 -9 -48 -24 -3 -10 -9 -16 -14 -13 -5 3 -7 10
-4 15 4 5 1 9 -4 9 -6 0 -11 -7 -11 -16 0 -14 -3 -14 -15 -4 -10 9 -15 9 -15
1 0 -6 -3 -10 -7 -9 -26 7 -117 -47 -108 -63 4 -5 -1 -6 -9 -3 -9 3 -16 1 -16
-6 0 -6 -4 -9 -9 -5 -14 8 -107 -107 -140 -173 -73 -149 -73 -318 1 -469 89
-182 310 -307 508 -289 389 37 610 458 416 791 -32 54 -114 145 -131 145 -7 0
-15 6 -18 13 -3 9 -8 8 -23 -3 -17 -14 -18 -14 -6 1 11 15 8 20 -23 39 -20 12
-46 23 -59 24 -13 0 -22 4 -19 9 2 4 -2 7 -11 7 -8 0 -17 -6 -19 -12 -3 -8 -6
-6 -6 5 -1 9 -5 17 -10 17 -5 0 -12 -8 -14 -17 -4 -14 -5 -12 -6 5 -1 16 -7
22 -25 22 -13 0 -43 2 -67 4 -24 2 -64 2 -88 -1z m-21 -28 c0 -8 -2 -15 -4
-15 -2 0 -6 7 -10 15 -3 8 -1 15 4 15 6 0 10 -7 10 -15z m30 0 c0 -8 -2 -15
-4 -15 -2 0 -6 7 -10 15 -3 8 -1 15 4 15 6 0 10 -7 10 -15z m27 -7 c-3 -8 -6
-5 -6 6 -1 11 2 17 5 13 3 -3 4 -12 1 -19z m30 0 c-3 -8 -6 -5 -6 6 -1 11 2
17 5 13 3 -3 4 -12 1 -19z m30 0 c-3 -8 -6 -5 -6 6 -1 11 2 17 5 13 3 -3 4
-12 1 -19z m30 0 c-3 -8 -6 -5 -6 6 -1 11 2 17 5 13 3 -3 4 -12 1 -19z m30 0
c-3 -8 -6 -5 -6 6 -1 11 2 17 5 13 3 -3 4 -12 1 -19z m-346 -65 c13 -16 12
-17 -3 -4 -10 7 -18 15 -18 17 0 8 8 3 21 -13z m67 -8 c-3 -3 -9 2 -12 12 -6
14 -5 15 5 6 7 -7 10 -15 7 -18z m54 5 c10 0 18 4 18 8 0 12 178 14 225 3 29
-7 42 -7 47 2 6 9 8 8 8 -3 0 -8 25 -28 54 -43 73 -38 150 -122 188 -204 58
-123 48 -287 -22 -402 -18 -28 -33 -51 -35 -51 -2 0 13 32 33 71 37 71 37 73
37 193 0 112 -2 125 -28 178 -44 89 -116 161 -205 205 -73 37 -80 38 -181 38
-99 0 -111 -2 -174 -32 -89 -42 -168 -121 -210 -210 -30 -64 -32 -75 -32 -179
0 -107 1 -112 37 -185 29 -58 32 -68 13 -47 -54 63 -84 206 -66 316 20 126
101 244 208 304 40 23 53 35 48 47 -5 13 -4 14 6 4 7 -7 21 -13 31 -13z m391
5 c-3 -9 -8 -14 -10 -11 -3 3 -2 9 2 15 9 16 15 13 8 -4z m-305 -80 l-4 -35
21 20 c15 14 35 20 68 20 26 0 47 -3 47 -7 0 -4 -17 -24 -37 -45 -28 -29 -45
-38 -70 -38 l-33 0 0 -79 c0 -67 3 -80 18 -84 9 -3 -17 -4 -58 -4 -41 0 -58 2
-37 4 33 4 37 7 37 34 0 27 -3 29 -37 29 -29 0 -45 8 -75 37 -21 20 -38 41
-38 45 0 16 113 9 132 -9 17 -15 18 -14 18 17 0 23 -9 43 -27 62 l-27 28 30 0
c18 0 34 7 42 20 19 32 35 24 30 -15z m307 -29 c49 -21 77 -70 72 -125 -6 -56
-33 -92 -89 -115 -44 -18 -45 -18 -91 2 -54 24 -78 57 -84 115 -10 99 92 164
192 123z m-540 -48 c-145 -170 -133 -405 27 -553 78 -72 146 -99 258 -99 115
0 180 26 264 105 91 85 120 153 120 279 0 57 -5 107 -13 125 l-13 30 -10 -25
c-23 -61 -84 -100 -156 -100 -57 0 -104 27 -139 79 -39 57 -27 152 24 192 12
10 11 6 -5 -15 -86 -112 25 -275 163 -236 54 15 91 53 108 111 l13 44 24 -60
c29 -76 32 -205 5 -280 -65 -184 -241 -288 -444 -264 -127 15 -245 99 -304
218 -30 62 -32 72 -32 176 0 98 3 116 27 167 14 31 45 77 68 102 53 58 64 60
15 4z m95 -105 c0 -2 -21 -2 -47 -2 -44 2 -45 2 -15 8 l34 6 -29 25 c-24 21
-25 22 -9 3 19 -23 19 -23 -2 -23 -18 0 -21 6 -20 35 l1 36 44 -43 c23 -23 43
-43 43 -45z m183 80 l-33 -4 0 -59 0 -59 38 -4 37 -4 -42 -1 -43 -2 0 70 0 70
38 -2 c36 -1 36 -1 5 -5z m27 -32 c0 -11 -6 -22 -12 -25 -10 -5 -10 -7 0 -12
6 -3 12 -14 12 -25 0 -14 -7 -19 -25 -19 -23 0 -25 3 -25 50 0 47 2 50 25 50
18 0 25 -5 25 -19z m-302 -73 c2 8 27 12 87 12 78 0 85 -2 85 -20 0 -17 -7
-20 -50 -20 -33 0 -50 4 -51 13 0 10 -2 10 -6 0 -6 -16 -123 -18 -123 -3 0 6
9 10 20 10 17 0 20 7 22 48 l1 47 7 -50 c4 -27 8 -44 8 -37z m-28 27 c0 -14
-4 -25 -10 -25 -11 0 -14 33 -3 43 11 11 13 8 13 -18z m72 -72 c-23 -2 -61 -2
-85 0 -23 2 -4 4 43 4 47 0 66 -2 42 -4z m271 0 c-7 -2 -21 -2 -30 0 -10 3 -4
5 12 5 17 0 24 -2 18 -5z m-267 -28 c16 -12 17 -16 5 -24 -9 -6 -21 -5 -33 2
-24 16 -53 -2 -53 -33 0 -28 26 -46 51 -35 18 8 17 9 -3 12 -41 8 -27 33 17
33 34 0 40 -3 40 -20 0 -12 -11 -32 -25 -45 l-24 -25 69 0 c40 0 70 -4 70 -10
0 -6 -34 -10 -81 -10 -46 0 -78 4 -75 9 4 5 -7 12 -24 16 -37 8 -63 53 -54 90
12 49 79 72 120 40z m72 -33 c16 -48 24 -46 42 11 8 26 17 37 31 37 22 0 22
-1 -10 -85 -15 -40 -24 -51 -45 -53 -14 -2 -26 -1 -26 1 0 3 -11 35 -25 72
l-25 66 22 -3 c15 -2 25 -15 36 -46z m186 42 c9 -3 16 -13 16 -21 0 -11 -8
-12 -35 -7 -42 7 -48 -10 -8 -21 35 -8 53 -23 53 -42 0 -25 -122 -143 -147
-143 -19 0 -23 -5 -23 -32 l0 -32 38 37 c21 20 43 37 50 37 7 0 12 5 12 10 0
6 7 10 15 10 8 0 15 5 15 10 0 16 277 13 284 -2 5 -10 7 -10 12 0 5 11 44 18
44 8 0 -18 -15 -36 -30 -36 -10 0 -18 -6 -17 -12 2 -55 -3 -68 -28 -68 -18 0
-25 -5 -25 -20 0 -11 -7 -20 -15 -20 -11 0 -15 12 -15 48 l0 47 -20 -25 c-11
-14 -20 -35 -20 -47 0 -14 -6 -23 -15 -23 -9 0 -15 9 -15 21 0 17 -21 62 -46
97 -1 2 -27 -24 -59 -57 -54 -56 -60 -60 -109 -63 -46 -3 -51 -5 -53 -28 -1
-14 0 -19 3 -12 9 21 50 15 51 -8 1 -16 -4 -20 -33 -20 -33 0 -34 1 -34 40 l0
40 53 0 c49 0 56 3 97 45 l44 45 -50 0 c-45 0 -54 -4 -89 -40 -21 -22 -43 -40
-47 -40 -4 0 -8 24 -8 53 0 47 -3 53 -27 65 -15 6 -36 12 -47 12 -18 0 -19 -1
-1 -20 10 -11 29 -20 42 -20 22 0 23 -2 23 -90 0 -73 -3 -90 -15 -90 -8 0 -15
5 -15 10 0 6 5 10 10 10 6 0 10 9 10 20 0 16 -7 20 -32 20 -24 0 -42 10 -70
37 -21 20 -38 41 -38 45 0 4 21 8 47 8 34 0 53 -6 70 -22 l23 -21 0 31 c0 26
-4 32 -22 32 -21 0 -78 45 -78 62 0 13 85 9 98 -4 9 -9 18 -6 40 15 17 16 40
27 58 28 28 0 28 1 6 10 -37 14 -21 35 24 31 43 -4 42 2 -8 26 -18 10 -34 24
-36 33 -7 36 47 60 92 43z m163 -76 c21 -20 24 -20 41 -5 12 11 36 17 67 17
l49 0 -34 -35 c-19 -20 -44 -35 -57 -35 -30 0 -30 -27 0 -33 16 -3 13 -5 -10
-6 -29 -1 -33 2 -33 24 0 20 5 25 27 25 26 0 63 25 63 42 0 15 -37 8 -63 -12
-32 -26 -39 -25 -67 5 -15 16 -34 25 -54 25 l-30 0 29 -30 c19 -19 39 -30 57
-30 23 0 28 -4 28 -25 0 -24 -2 -25 -62 -23 l-63 2 58 3 c41 3 57 8 57 18 0
10 -10 15 -28 15 -19 0 -40 12 -67 40 l-39 40 54 0 c41 0 59 -5 77 -22z m140
-46 c-15 -16 -27 -31 -27 -34 0 -4 17 -9 38 -11 34 -3 33 -4 -10 -5 -32 -1
-48 2 -48 10 0 15 62 80 69 73 2 -3 -8 -18 -22 -33z m-587 -77 l54 -55 -57 0
c-31 0 -57 2 -57 4 0 2 -3 11 -6 20 -4 11 -1 16 11 16 21 0 10 19 -19 30 -19
8 -19 9 -1 9 10 1 35 -14 55 -31 l35 -33 -34 38 c-21 22 -44 37 -58 37 -13 0
-23 5 -23 10 0 6 10 10 23 10 14 0 43 -20 77 -55z m360 -85 c-24 -8 -23 -8 8
-9 29 -1 32 -4 32 -31 0 -28 1 -29 58 -33 l57 -3 -70 -4 -70 -3 60 -7 60 -7
-67 -1 c-42 -1 -68 -7 -72 -14 -5 -10 -7 -10 -12 0 -3 6 -13 12 -22 11 -11 0
-12 -2 -4 -6 30 -12 7 -23 -48 -23 -53 0 -60 2 -60 20 0 17 7 20 45 20 45 0
45 0 45 35 0 19 5 35 10 35 6 0 10 7 10 15 0 10 10 15 33 14 30 -1 31 -1 7 -9z
m-70 -55 c0 -20 -5 -25 -27 -25 l-26 0 23 25 c13 14 25 25 27 25 2 0 3 -11 3
-25z m-77 -22 c-13 -2 -33 -2 -45 0 -13 2 -3 4 22 4 25 0 35 -2 23 -4z"/>
<path d="M475 900 c-3 -5 -1 -10 4 -10 6 0 11 5 11 10 0 6 -2 10 -4 10 -3 0
-8 -4 -11 -10z"/>
<path d="M430 885 c0 -2 10 -10 23 -16 20 -11 21 -11 8 4 -13 16 -31 23 -31
12z"/>
<path d="M502 860 l-32 -30 38 0 c29 0 45 7 67 30 l29 30 -35 0 c-23 0 -44
-10 -67 -30z"/>
<path d="M365 760 c22 -23 38 -30 67 -30 21 0 38 2 38 5 0 3 -12 17 -27 30
-19 17 -40 24 -67 25 l-40 0 29 -30z"/>
<path d="M532 740 c0 -19 2 -27 5 -17 2 9 2 25 0 35 -3 9 -5 1 -5 -18z"/>
<path d="M450 445 l-23 -25 25 0 c13 0 35 11 48 25 l23 25 -25 0 c-13 0 -35
-11 -48 -25z"/>
<path d="M700 401 c0 -18 18 -21 30 -6 10 13 9 15 -9 15 -11 0 -21 -4 -21 -9z"/>
<path d="M783 350 c0 -25 2 -35 4 -22 2 12 2 32 0 45 -2 12 -4 2 -4 -23z"/>
<path d="M315 330 c19 -20 38 -30 59 -30 l30 0 -29 30 c-19 20 -38 30 -59 30
l-30 0 29 -30z"/>
<path d="M708 333 c2 -12 6 -23 7 -23 1 0 5 11 7 23 3 14 0 24 -7 24 -7 0 -10
-10 -7 -24z"/>
<path d="M655 320 c3 -5 8 -10 11 -10 2 0 4 5 4 10 0 6 -5 10 -11 10 -5 0 -7
-4 -4 -10z"/>
</g>
</svg>
