<?xml version="1.0" standalone="no"?>
<!DOCTYPE svg PUBLIC "-//W3C//DTD SVG 20010904//EN"
 "http://www.w3.org/TR/2001/REC-SVG-20010904/DTD/svg10.dtd">
<svg version="1.0" xmlns="http://www.w3.org/2000/svg"
 width="111.000000pt" height="111.000000pt" viewBox="0 0 111.000000 111.000000"
 preserveAspectRatio="xMidYMid meet">

<g transform="translate(0.000000,111.000000) scale(0.100000,-0.100000)"
fill="#000000" stroke="none">
<path d="M469 1005 c-3 -2 -20 -7 -39 -10 -19 -3 -61 -19 -94 -35 -32 -16 -62
-27 -67 -24 -5 3 -6 -2 -3 -10 8 -21 -4 -20 -30 2 -21 17 -21 17 -4 -4 17 -20
17 -21 -11 -48 -18 -17 -31 -24 -35 -17 -4 6 -17 16 -29 22 -15 7 -12 2 8 -14
17 -14 27 -29 23 -33 -5 -4 -16 0 -26 9 -10 10 -23 17 -28 17 -5 0 2 -9 16
-20 33 -25 20 -36 -17 -15 l-28 17 30 -27 c31 -28 25 -29 -30 -10 -12 4 -9 0
7 -11 31 -21 38 -40 11 -29 -36 15 -57 16 -25 1 39 -18 45 -40 6 -26 -37 15
-43 11 -11 -6 36 -20 28 -30 -12 -16 -17 6 -31 7 -31 2 0 -5 13 -11 30 -15 16
-4 30 -11 30 -16 0 -9 -17 -7 -57 8 -7 3 -13 1 -13 -5 0 -5 16 -13 35 -16 20
-4 33 -11 30 -16 -3 -5 -18 -5 -35 0 -17 5 -30 5 -30 1 0 -5 15 -12 33 -16
l32 -8 -40 -7 c-22 -4 -30 -8 -18 -9 12 0 30 -4 40 -8 14 -6 8 -9 -22 -14
l-40 -6 38 -2 c20 0 37 -5 37 -11 0 -5 -17 -11 -37 -12 -37 -1 -37 -1 -5 -5
41 -5 41 -21 0 -26 -31 -4 -30 -4 7 -6 30 -1 36 -4 25 -11 -8 -5 -25 -10 -37
-10 -13 0 -23 -4 -23 -8 0 -4 17 -7 38 -6 l37 3 -37 -11 c-21 -6 -38 -15 -38
-20 0 -5 17 -7 38 -4 l37 6 -33 -10 c-17 -6 -32 -15 -32 -21 0 -6 13 -8 32 -5
33 6 33 6 6 -5 -27 -10 -38 -29 -18 -29 5 0 7 -7 3 -16 -5 -13 -1 -15 18 -10
20 6 21 5 7 -4 -20 -13 -25 -35 -5 -27 37 15 49 16 25 2 -16 -8 -28 -19 -28
-23 1 -14 27 -41 34 -35 4 4 4 0 0 -10 -9 -26 116 -147 194 -186 226 -114 498
-59 653 133 26 33 46 63 43 68 -3 4 0 8 6 8 7 0 9 7 6 17 -4 10 -4 14 0 10 4
-4 16 12 26 35 10 22 17 42 16 43 -2 1 -19 7 -38 13 l-35 11 38 -6 c20 -3 37
-1 37 4 0 5 -17 14 -37 20 l-38 11 43 -5 c27 -4 42 -2 42 6 0 6 -10 11 -22 11
-13 0 -30 5 -38 11 -11 7 -5 8 21 3 22 -3 39 -2 43 5 5 7 -7 11 -33 11 -23 0
-41 4 -41 9 0 5 18 7 40 4 25 -4 40 -2 40 5 0 6 -19 13 -42 15 l-43 4 43 1
c23 1 42 6 42 11 0 6 -19 12 -42 14 l-43 4 43 1 c23 1 42 7 42 12 0 6 -19 11
-42 11 l-43 1 38 8 c53 10 60 23 10 18 -53 -4 -55 5 -5 20 l37 11 -37 -5 c-21
-3 -38 -1 -38 4 0 5 17 13 38 20 l37 11 -44 -6 c-50 -6 -50 11 0 21 18 3 30 9
27 12 -4 3 -22 1 -42 -4 -47 -13 -47 3 0 18 19 7 33 14 30 17 -3 3 -19 0 -37
-6 -46 -16 -47 -6 -2 19 21 11 28 19 16 16 -13 -4 -33 -9 -45 -12 -22 -5 -22
-5 -4 10 11 9 26 16 33 16 7 0 13 5 13 10 0 6 -14 4 -31 -5 -17 -9 -34 -13
-37 -9 -4 4 -1 9 5 11 7 3 23 14 35 25 22 19 21 19 -14 -1 -20 -12 -39 -18
-42 -13 -3 5 9 16 25 26 17 10 28 20 25 23 -2 3 -15 -2 -28 -11 -37 -26 -44
-18 -12 16 l29 31 -32 -21 c-44 -31 -52 -27 -17 10 l29 32 -29 -22 c-22 -17
-32 -19 -42 -11 -18 15 -18 28 3 53 13 15 9 14 -11 -4 l-29 -25 6 24 c4 18 3
21 -6 12 -14 -14 -30 -14 -21 1 5 7 3 8 -5 4 -7 -5 -20 -1 -29 7 -38 33 -136
60 -228 63 -50 2 -93 2 -95 -1z m266 -75 c103 -48 201 -168 221 -266 5 -28 3
-32 -20 -36 -26 -5 -26 -4 -26 55 0 52 -4 65 -27 89 -20 21 -36 28 -65 28 -21
0 -38 -3 -38 -7 0 -15 55 -63 72 -63 16 0 18 -10 18 -87 0 -68 -3 -84 -12 -75
-13 13 -98 17 -98 5 0 -17 66 -73 87 -73 17 0 23 -6 23 -22 0 -13 3 -34 7 -47
5 -18 3 -22 -7 -16 -8 5 -11 3 -8 -5 9 -27 28 -22 29 7 2 26 2 26 9 -7 5 -26
8 -9 9 60 2 93 3 95 33 120 l31 24 -5 -79 c-13 -181 -118 -318 -289 -375 -52
-18 -80 -21 -149 -17 -126 6 -189 34 -276 121 -97 97 -119 152 -118 296 0 96
2 111 31 171 40 87 130 179 174 179 23 0 30 4 26 14 -8 21 34 29 141 27 65 -2
92 1 92 9 0 18 65 4 135 -30z m135 -165 c23 -25 23 -25 2 -25 -11 0 -34 11
-49 25 l-28 24 26 1 c15 0 35 -11 49 -25z m-13 -225 l34 -30 -28 0 c-25 0 -73
34 -73 52 0 18 34 6 67 -22z m-747 -130 c-8 -5 -19 -10 -25 -10 -5 0 -3 5 5
10 8 5 20 10 25 10 6 0 3 -5 -5 -10z m900 -45 c14 -8 21 -14 15 -14 -5 0 -21
6 -35 14 -14 8 -20 14 -15 14 6 0 21 -6 35 -14z"/>
<path d="M598 923 c7 -3 16 -2 19 1 4 3 -2 6 -13 5 -11 0 -14 -3 -6 -6z"/>
<path d="M232 767 c-12 -13 -22 -32 -22 -42 0 -15 -3 -16 -12 -7 -21 21 -28
13 -28 -26 0 -26 7 -45 20 -57 11 -10 20 -31 20 -47 0 -26 -3 -28 -36 -28 -43
0 -42 -17 4 -39 30 -15 32 -19 33 -76 2 -57 2 -58 9 -20 l7 40 2 -52 1 -53 68
2 67 2 -63 3 -63 4 3 85 c3 77 -3 103 -15 72 -3 -8 -6 -6 -6 5 -1 9 5 17 12
17 10 0 12 20 9 90 -4 84 -3 90 15 90 18 0 63 38 63 53 0 18 -68 5 -88 -16z
m53 -7 c-10 -11 -25 -20 -34 -20 -12 1 -10 5 8 20 30 26 49 26 26 0z m-88 -92
c-3 -7 -5 -2 -5 12 0 14 2 19 5 13 2 -7 2 -19 0 -25z m33 -28 c0 -5 -2 -10 -4
-10 -3 0 -8 5 -11 10 -3 6 -1 10 4 10 6 0 11 -4 11 -10z m-25 -100 c3 -5 -1
-10 -9 -10 -8 0 -18 5 -21 10 -3 6 1 10 9 10 8 0 18 -4 21 -10z"/>
<path d="M320 611 c0 -6 10 -11 22 -11 l21 0 -23 -25 c-28 -30 -19 -46 10 -20
27 24 22 59 -7 63 -13 2 -23 -1 -23 -7z"/>
<path d="M460 495 l0 -125 -25 0 c-21 0 -25 -4 -24 -27 2 -24 2 -25 6 -5 3 15
11 22 29 22 l24 0 0 130 c0 72 -2 130 -5 130 -3 0 -5 -56 -5 -125z"/>
<path d="M482 573 c-2 -57 8 -66 32 -31 18 25 13 36 -8 19 -12 -10 -15 -6 -19
26 -3 32 -4 30 -5 -14z"/>
<path d="M600 590 c0 -5 5 -10 12 -10 9 0 9 -3 0 -12 -24 -24 -12 -31 13 -8
14 13 25 27 25 32 0 4 -11 8 -25 8 -14 0 -25 -4 -25 -10z"/>
<path d="M482 448 l2 -63 3 53 c3 37 8 52 19 52 7 0 14 5 14 10 0 6 -9 10 -20
10 -18 0 -20 -6 -18 -62z"/>
<path d="M650 476 c0 -2 6 -9 13 -15 10 -8 14 -7 14 4 0 8 -6 15 -14 15 -7 0
-13 -2 -13 -4z"/>
<path d="M770 473 c14 -3 33 -12 43 -20 9 -9 17 -12 17 -7 0 19 -25 34 -54 33
-28 -2 -28 -2 -6 -6z"/>
<path d="M757 368 c2 -5 31 -8 63 -8 37 0 60 -4 63 -12 4 -8 6 -7 6 4 1 13
-11 17 -68 20 -38 2 -67 0 -64 -4z"/>
<path d="M205 910 c10 -11 20 -20 23 -20 3 0 -3 9 -13 20 -10 11 -20 20 -23
20 -3 0 3 -9 13 -20z"/>
<path d="M899 904 c-23 -25 -23 -26 -2 -15 23 12 38 29 31 37 -3 2 -15 -8 -29
-22z"/>
<path d="M185 890 c10 -11 20 -20 23 -20 3 0 -3 9 -13 20 -10 11 -20 20 -23
20 -3 0 3 -9 13 -20z"/>
</g>
</svg>
